<mxfile host="65bd71144e">
    <diagram id="EMuwBuVox5BvlygAPANL" name="Page-1">
        <mxGraphModel dx="2220" dy="912" grid="1" gridSize="10" guides="1" tooltips="1" connect="1" arrows="1" fold="1" page="1" pageScale="1" pageWidth="850" pageHeight="1100" math="0" shadow="0">
            <root>
                <mxCell id="0"/>
                <mxCell id="1" parent="0"/>
                <mxCell id="2" value="" style="endArrow=none;html=1;rounded=0;" edge="1" parent="1">
                    <mxGeometry width="50" height="50" relative="1" as="geometry">
                        <mxPoint x="214" y="434.3000000000002" as="sourcePoint"/>
                        <mxPoint x="254" y="434.3000000000002" as="targetPoint"/>
                    </mxGeometry>
                </mxCell>
                <mxCell id="3" value="" style="endArrow=none;html=1;rounded=0;" edge="1" parent="1">
                    <mxGeometry width="50" height="50" relative="1" as="geometry">
                        <mxPoint x="555" y="434" as="sourcePoint"/>
                        <mxPoint x="595" y="434" as="targetPoint"/>
                    </mxGeometry>
                </mxCell>
                <mxCell id="4" value="" style="endArrow=none;html=1;rounded=0;" edge="1" parent="1">
                    <mxGeometry width="50" height="50" relative="1" as="geometry">
                        <mxPoint x="555" y="474" as="sourcePoint"/>
                        <mxPoint x="595" y="474" as="targetPoint"/>
                    </mxGeometry>
                </mxCell>
                <mxCell id="5" value="" style="endArrow=none;html=1;rounded=0;" edge="1" parent="1">
                    <mxGeometry width="50" height="50" relative="1" as="geometry">
                        <mxPoint x="830" y="464" as="sourcePoint"/>
                        <mxPoint x="859.0000000000005" y="464" as="targetPoint"/>
                    </mxGeometry>
                </mxCell>
                <mxCell id="6" value="Flare" style="text;html=1;strokeColor=none;fillColor=none;align=center;verticalAlign=middle;whiteSpace=wrap;rounded=0;" vertex="1" parent="1">
                    <mxGeometry x="831" y="269" width="60" height="30" as="geometry"/>
                </mxCell>
                <mxCell id="7" value="Oil" style="text;html=1;strokeColor=none;fillColor=none;align=center;verticalAlign=middle;whiteSpace=wrap;rounded=0;" vertex="1" parent="1">
                    <mxGeometry x="199" y="490.4000000000001" width="70" height="30" as="geometry"/>
                </mxCell>
                <mxCell id="8" value="" style="shape=mxgraph.pid.vessels.tank;html=1;pointerEvents=1;align=center;verticalLabelPosition=bottom;verticalAlign=top;dashed=0;rotation=-90;" vertex="1" parent="1">
                    <mxGeometry x="79" y="365.20000000000005" width="100" height="170" as="geometry"/>
                </mxCell>
                <mxCell id="9" value="" style="endArrow=classic;html=1;rounded=0;exitX=-0.018;exitY=0.684;exitDx=0;exitDy=0;exitPerimeter=0;" edge="1" parent="1" source="8">
                    <mxGeometry width="50" height="50" relative="1" as="geometry">
                        <mxPoint x="167" y="504" as="sourcePoint"/>
                        <mxPoint x="289" y="520.4000000000001" as="targetPoint"/>
                        <Array as="points">
                            <mxPoint x="160" y="520.4000000000001"/>
                        </Array>
                    </mxGeometry>
                </mxCell>
                <mxCell id="10" value="" style="endArrow=classic;html=1;rounded=0;" edge="1" parent="1">
                    <mxGeometry width="50" height="50" relative="1" as="geometry">
                        <mxPoint x="104" y="500.1999999999998" as="sourcePoint"/>
                        <mxPoint x="233" y="545.3999999999996" as="targetPoint"/>
                        <Array as="points">
                            <mxPoint x="104" y="545.4000000000001"/>
                        </Array>
                    </mxGeometry>
                </mxCell>
                <mxCell id="11" value="Water" style="text;html=1;strokeColor=none;fillColor=none;align=center;verticalAlign=middle;whiteSpace=wrap;rounded=0;" vertex="1" parent="1">
                    <mxGeometry x="109" y="520.4000000000001" width="70" height="30" as="geometry"/>
                </mxCell>
                <mxCell id="12" value="" style="verticalLabelPosition=bottom;outlineConnect=0;align=center;dashed=0;html=1;verticalAlign=top;shape=mxgraph.pid.misc.gas_flare;" vertex="1" parent="1">
                    <mxGeometry x="841" y="304" width="40" height="200" as="geometry"/>
                </mxCell>
                <mxCell id="13" value="" style="endArrow=none;html=1;rounded=0;" edge="1" parent="1">
                    <mxGeometry width="50" height="50" relative="1" as="geometry">
                        <mxPoint x="650" y="547" as="sourcePoint"/>
                        <mxPoint x="650" y="477" as="targetPoint"/>
                    </mxGeometry>
                </mxCell>
                <mxCell id="14" value="" style="endArrow=none;html=1;rounded=0;" edge="1" parent="1">
                    <mxGeometry width="50" height="50" relative="1" as="geometry">
                        <mxPoint x="650" y="546.8000000000002" as="sourcePoint"/>
                        <mxPoint x="680" y="546.3999999999996" as="targetPoint"/>
                        <Array as="points">
                            <mxPoint x="660" y="546.8000000000002"/>
                        </Array>
                    </mxGeometry>
                </mxCell>
                <mxCell id="15" value="" style="shape=mxgraph.pid.pumps_-_iso.pump_(liquid);html=1;pointerEvents=1;align=center;verticalLabelPosition=bottom;verticalAlign=top;dashed=0;" vertex="1" parent="1">
                    <mxGeometry x="673" y="530.6000000000001" width="27" height="30" as="geometry"/>
                </mxCell>
                <mxCell id="16" value="" style="endArrow=classic;html=1;rounded=0;exitX=1;exitY=0.5;exitDx=0;exitDy=0;exitPerimeter=0;" edge="1" parent="1">
                    <mxGeometry width="50" height="50" relative="1" as="geometry">
                        <mxPoint x="700" y="548.6000000000004" as="sourcePoint"/>
                        <mxPoint x="857" y="549" as="targetPoint"/>
                    </mxGeometry>
                </mxCell>
                <mxCell id="17" value="To upstream process" style="text;html=1;strokeColor=none;fillColor=none;align=left;verticalAlign=middle;whiteSpace=wrap;rounded=0;" vertex="1" parent="1">
                    <mxGeometry x="757" y="560.6" width="104" height="30" as="geometry"/>
                </mxCell>
                <mxCell id="18" value="" style="endArrow=none;html=1;rounded=0;" edge="1" parent="1">
                    <mxGeometry width="50" height="50" relative="1" as="geometry">
                        <mxPoint x="710" y="384" as="sourcePoint"/>
                        <mxPoint x="710" y="334" as="targetPoint"/>
                    </mxGeometry>
                </mxCell>
                <mxCell id="19" value="" style="shape=mxgraph.pid.vessels.tank;html=1;pointerEvents=1;align=center;verticalLabelPosition=bottom;verticalAlign=top;dashed=0;rotation=-90;" vertex="1" parent="1">
                    <mxGeometry x="620" y="340.20000000000005" width="100" height="176.4" as="geometry"/>
                </mxCell>
                <mxCell id="20" value="" style="endArrow=none;html=1;rounded=0;" edge="1" parent="1">
                    <mxGeometry width="50" height="50" relative="1" as="geometry">
                        <mxPoint x="709" y="334" as="sourcePoint"/>
                        <mxPoint x="829" y="334" as="targetPoint"/>
                    </mxGeometry>
                </mxCell>
                <mxCell id="21" value="" style="endArrow=none;html=1;rounded=0;" edge="1" parent="1">
                    <mxGeometry width="50" height="50" relative="1" as="geometry">
                        <mxPoint x="830.5" y="464" as="sourcePoint"/>
                        <mxPoint x="829.5" y="334" as="targetPoint"/>
                    </mxGeometry>
                </mxCell>
                <mxCell id="22" value="Flare drum" style="text;html=1;strokeColor=none;fillColor=none;align=center;verticalAlign=middle;whiteSpace=wrap;rounded=0;" vertex="1" parent="1">
                    <mxGeometry x="641" y="413.4000000000001" width="58" height="30" as="geometry"/>
                </mxCell>
                <mxCell id="23" value="Return pumps" style="text;html=1;strokeColor=none;fillColor=none;align=center;verticalAlign=middle;whiteSpace=wrap;rounded=0;" vertex="1" parent="1">
                    <mxGeometry x="660" y="560.5999999999999" width="58" height="30" as="geometry"/>
                </mxCell>
                <mxCell id="24" value="Gas" style="text;html=1;strokeColor=none;fillColor=none;align=left;verticalAlign=middle;whiteSpace=wrap;rounded=0;" vertex="1" parent="1">
                    <mxGeometry x="170" y="358.4" width="40" height="16.8" as="geometry"/>
                </mxCell>
                <mxCell id="25" style="edgeStyle=orthogonalEdgeStyle;rounded=0;html=1;entryX=0.994;entryY=0.353;entryDx=0;entryDy=0;entryPerimeter=0;endArrow=classic;endFill=1;" edge="1" parent="1" source="27" target="19">
                    <mxGeometry relative="1" as="geometry"/>
                </mxCell>
                <mxCell id="26" style="edgeStyle=orthogonalEdgeStyle;rounded=0;html=1;entryX=1.012;entryY=0.406;entryDx=0;entryDy=0;entryPerimeter=0;endArrow=none;endFill=0;" edge="1" parent="1" source="27" target="8">
                    <mxGeometry relative="1" as="geometry"/>
                </mxCell>
                <mxCell id="27" value="" style="verticalLabelPosition=bottom;align=center;html=1;verticalAlign=top;pointerEvents=1;dashed=0;shape=mxgraph.pid2valves.valve;valveType=gate;actuator=powered" vertex="1" parent="1">
                    <mxGeometry x="220" y="320.2" width="30" height="20" as="geometry"/>
                </mxCell>
                <mxCell id="28" value="" style="part=1;strokeColor=none;fillColor=none;fontStyle=1;fontSize=14;" vertex="1" parent="27">
                    <mxGeometry x="9.75" width="10.5" height="7" as="geometry"/>
                </mxCell>
                <mxCell id="29" value="" style="verticalLabelPosition=bottom;align=center;html=1;verticalAlign=top;pointerEvents=1;dashed=0;shape=mxgraph.pid2valves.valve;valveType=gate;actuator=powered" vertex="1" parent="1">
                    <mxGeometry x="242" y="506" width="30" height="20" as="geometry"/>
                </mxCell>
                <mxCell id="30" value="" style="part=1;strokeColor=none;fillColor=none;fontStyle=1;fontSize=14;" vertex="1" parent="29">
                    <mxGeometry x="9.75" width="10.5" height="7" as="geometry"/>
                </mxCell>
                <mxCell id="31" value="" style="verticalLabelPosition=bottom;align=center;html=1;verticalAlign=top;pointerEvents=1;dashed=0;shape=mxgraph.pid2valves.valve;valveType=gate;actuator=powered" vertex="1" parent="1">
                    <mxGeometry x="173" y="531.5999999999999" width="30" height="20" as="geometry"/>
                </mxCell>
                <mxCell id="32" value="" style="part=1;strokeColor=none;fillColor=none;fontStyle=1;fontSize=14;" vertex="1" parent="31">
                    <mxGeometry x="9.75" width="10.5" height="7" as="geometry"/>
                </mxCell>
                <mxCell id="33" value="" style="endArrow=classic;html=1;rounded=0;entryX=1.002;entryY=0.21;entryDx=0;entryDy=0;entryPerimeter=0;" edge="1" parent="1" target="8">
                    <mxGeometry width="50" height="50" relative="1" as="geometry">
                        <mxPoint x="-130" y="334" as="sourcePoint"/>
                        <mxPoint x="80" y="404" as="targetPoint"/>
                        <Array as="points">
                            <mxPoint x="80" y="335"/>
                        </Array>
                    </mxGeometry>
                </mxCell>
                <mxCell id="34" value="Feed" style="text;html=1;strokeColor=none;fillColor=none;align=left;verticalAlign=middle;whiteSpace=wrap;rounded=0;" vertex="1" parent="1">
                    <mxGeometry x="-123" y="310" width="36" height="30" as="geometry"/>
                </mxCell>
                <mxCell id="35" value="" style="endArrow=classic;html=1;rounded=0;" edge="1" parent="1">
                    <mxGeometry width="50" height="50" relative="1" as="geometry">
                        <mxPoint x="833" y="464" as="sourcePoint"/>
                        <mxPoint x="854.0000000000005" y="465.1999999999998" as="targetPoint"/>
                    </mxGeometry>
                </mxCell>
                <mxCell id="36" style="edgeStyle=orthogonalEdgeStyle;html=1;exitX=1;exitY=0.5;exitDx=0;exitDy=0;dashed=1;rounded=0;fillColor=#CCFF99;strokeColor=#CCFF99;" edge="1" parent="1" source="38">
                    <mxGeometry relative="1" as="geometry">
                        <mxPoint x="457" y="554" as="targetPoint"/>
                    </mxGeometry>
                </mxCell>
                <mxCell id="37" style="edgeStyle=orthogonalEdgeStyle;html=1;exitX=1;exitY=0.5;exitDx=0;exitDy=0;dashed=1;rounded=0;strokeColor=#CCFF99;" edge="1" parent="1" source="38">
                    <mxGeometry relative="1" as="geometry">
                        <mxPoint x="407" y="554" as="targetPoint"/>
                        <Array as="points">
                            <mxPoint x="291" y="484"/>
                            <mxPoint x="407" y="484"/>
                        </Array>
                    </mxGeometry>
                </mxCell>
                <mxCell id="38" value="LT" style="ellipse;whiteSpace=wrap;html=1;" vertex="1" parent="1">
                    <mxGeometry x="253.5" y="458.4000000000001" width="37" height="33.6" as="geometry"/>
                </mxCell>
                <mxCell id="39" value="" style="endArrow=none;html=1;rounded=0;" edge="1" parent="1">
                    <mxGeometry width="50" height="50" relative="1" as="geometry">
                        <mxPoint x="213.49999999999955" y="473.4000000000001" as="sourcePoint"/>
                        <mxPoint x="253.49999999999955" y="473.4000000000001" as="targetPoint"/>
                    </mxGeometry>
                </mxCell>
                <mxCell id="40" style="edgeStyle=orthogonalEdgeStyle;html=1;exitX=0;exitY=0.5;exitDx=0;exitDy=0;dashed=1;rounded=0;fillColor=#CCFF99;strokeColor=#CCFF99;" edge="1" parent="1" source="42">
                    <mxGeometry relative="1" as="geometry">
                        <mxPoint x="457" y="554" as="targetPoint"/>
                        <Array as="points">
                            <mxPoint x="457" y="476"/>
                        </Array>
                    </mxGeometry>
                </mxCell>
                <mxCell id="41" style="edgeStyle=orthogonalEdgeStyle;html=1;exitX=0;exitY=0.5;exitDx=0;exitDy=0;dashed=1;rounded=0;strokeColor=#CCFF99;" edge="1" parent="1" source="42">
                    <mxGeometry relative="1" as="geometry">
                        <mxPoint x="407" y="554" as="targetPoint"/>
                        <Array as="points">
                            <mxPoint x="525" y="484"/>
                            <mxPoint x="407" y="484"/>
                        </Array>
                    </mxGeometry>
                </mxCell>
                <mxCell id="42" value="LT" style="ellipse;whiteSpace=wrap;html=1;" vertex="1" parent="1">
                    <mxGeometry x="525" y="459" width="37" height="33.6" as="geometry"/>
                </mxCell>
                <mxCell id="43" style="edgeStyle=orthogonalEdgeStyle;html=1;dashed=1;rounded=0;strokeColor=#CCFF99;" edge="1" parent="1" source="45">
                    <mxGeometry relative="1" as="geometry">
                        <mxPoint x="407" y="554" as="targetPoint"/>
                    </mxGeometry>
                </mxCell>
                <mxCell id="44" style="edgeStyle=orthogonalEdgeStyle;html=1;exitX=0;exitY=0.5;exitDx=0;exitDy=0;dashed=1;rounded=0;fillColor=#CCFF99;strokeColor=#CCFF99;" edge="1" parent="1" source="45">
                    <mxGeometry relative="1" as="geometry">
                        <mxPoint x="457" y="554" as="targetPoint"/>
                        <Array as="points">
                            <mxPoint x="525" y="444"/>
                            <mxPoint x="457" y="444"/>
                        </Array>
                    </mxGeometry>
                </mxCell>
                <mxCell id="45" value="LS" style="ellipse;whiteSpace=wrap;html=1;" vertex="1" parent="1">
                    <mxGeometry x="525" y="418" width="37" height="33.6" as="geometry"/>
                </mxCell>
                <mxCell id="46" style="edgeStyle=orthogonalEdgeStyle;html=1;exitX=1;exitY=0.5;exitDx=0;exitDy=0;dashed=1;rounded=0;strokeColor=#B3FF66;" edge="1" parent="1" source="48">
                    <mxGeometry relative="1" as="geometry">
                        <mxPoint x="407" y="554" as="targetPoint"/>
                    </mxGeometry>
                </mxCell>
                <mxCell id="47" style="edgeStyle=orthogonalEdgeStyle;html=1;exitX=1;exitY=0.5;exitDx=0;exitDy=0;dashed=1;rounded=0;fillColor=#CCFF99;strokeColor=#CCFF99;" edge="1" parent="1" source="48">
                    <mxGeometry relative="1" as="geometry">
                        <mxPoint x="457" y="554" as="targetPoint"/>
                        <Array as="points">
                            <mxPoint x="286" y="435"/>
                            <mxPoint x="286" y="444"/>
                            <mxPoint x="457" y="444"/>
                        </Array>
                    </mxGeometry>
                </mxCell>
                <mxCell id="48" value="LS" style="ellipse;whiteSpace=wrap;html=1;" vertex="1" parent="1">
                    <mxGeometry x="253.5" y="418.0000000000002" width="37" height="33.6" as="geometry"/>
                </mxCell>
                <mxCell id="49" value="To ESD/PSD" style="text;html=1;align=center;verticalAlign=middle;resizable=0;points=[];autosize=1;strokeColor=none;fillColor=none;" vertex="1" parent="1">
                    <mxGeometry x="307" y="520.4" width="90" height="30" as="geometry"/>
                </mxCell>
                <mxCell id="50" value="To HMI" style="text;html=1;align=center;verticalAlign=middle;resizable=0;points=[];autosize=1;strokeColor=none;fillColor=none;" vertex="1" parent="1">
                    <mxGeometry x="465" y="520.4" width="60" height="30" as="geometry"/>
                </mxCell>
                <mxCell id="51" value="" style="edgeStyle=orthogonalEdgeStyle;orthogonalLoop=1;jettySize=auto;html=1;rounded=0;startArrow=none;exitX=1;exitY=0.417;exitDx=0;exitDy=0;exitPerimeter=0;" edge="1" parent="1" source="70">
                    <mxGeometry width="100" relative="1" as="geometry">
                        <mxPoint x="697" y="624" as="sourcePoint"/>
                        <mxPoint x="857" y="624" as="targetPoint"/>
                        <Array as="points">
                            <mxPoint x="690" y="624"/>
                        </Array>
                    </mxGeometry>
                </mxCell>
                <mxCell id="52" value="To drain system" style="text;html=1;align=center;verticalAlign=middle;resizable=0;points=[];autosize=1;strokeColor=none;fillColor=none;" vertex="1" parent="1">
                    <mxGeometry x="747" y="634" width="110" height="30" as="geometry"/>
                </mxCell>
                <mxCell id="53" value="" style="line;strokeWidth=1;html=1;" vertex="1" parent="1">
                    <mxGeometry x="650" y="506.6" width="87" height="10" as="geometry"/>
                </mxCell>
                <mxCell id="54" value="Separator" style="text;html=1;align=center;verticalAlign=middle;resizable=0;points=[];autosize=1;strokeColor=none;fillColor=none;" vertex="1" parent="1">
                    <mxGeometry x="89" y="435.20000000000005" width="80" height="30" as="geometry"/>
                </mxCell>
                <mxCell id="55" value="" style="whiteSpace=wrap;html=1;" vertex="1" parent="1">
                    <mxGeometry x="846" y="345.2" width="30" height="20" as="geometry"/>
                </mxCell>
                <mxCell id="56" value="Flare iginition&lt;br&gt;system" style="text;html=1;align=center;verticalAlign=middle;resizable=0;points=[];autosize=1;strokeColor=none;fillColor=none;" vertex="1" parent="1">
                    <mxGeometry x="881" y="335.2" width="90" height="40" as="geometry"/>
                </mxCell>
                <mxCell id="57" value="" style="shape=mxgraph.pid.pumps_-_iso.pump_(liquid);html=1;pointerEvents=1;align=center;verticalLabelPosition=bottom;verticalAlign=top;dashed=0;" vertex="1" parent="1">
                    <mxGeometry x="673" y="496.0000000000001" width="27" height="30" as="geometry"/>
                </mxCell>
                <mxCell id="58" value="" style="endArrow=none;html=1;entryX=1;entryY=0.5;entryDx=0;entryDy=0;entryPerimeter=0;" edge="1" parent="1" target="53">
                    <mxGeometry width="50" height="50" relative="1" as="geometry">
                        <mxPoint x="737" y="549" as="sourcePoint"/>
                        <mxPoint x="697" y="464" as="targetPoint"/>
                    </mxGeometry>
                </mxCell>
                <mxCell id="59" style="edgeStyle=orthogonalEdgeStyle;html=1;entryX=0.998;entryY=0.454;entryDx=0;entryDy=0;entryPerimeter=0;rounded=0;" edge="1" parent="1" source="61" target="19">
                    <mxGeometry relative="1" as="geometry"/>
                </mxCell>
                <mxCell id="60" style="edgeStyle=orthogonalEdgeStyle;html=1;entryX=1.016;entryY=0.318;entryDx=0;entryDy=0;entryPerimeter=0;rounded=0;endArrow=none;endFill=0;" edge="1" parent="1" source="61" target="8">
                    <mxGeometry relative="1" as="geometry"/>
                </mxCell>
                <mxCell id="61" value="" style="verticalLabelPosition=bottom;align=center;html=1;verticalAlign=top;pointerEvents=1;dashed=0;shape=mxgraph.pid2valves.valve;valveType=gate;actuator=powered" vertex="1" parent="1">
                    <mxGeometry x="220" y="269" width="30" height="20" as="geometry"/>
                </mxCell>
                <mxCell id="62" value="" style="part=1;strokeColor=none;fillColor=none;fontStyle=1;fontSize=14;" vertex="1" parent="61">
                    <mxGeometry x="9.75" width="10.5" height="7" as="geometry"/>
                </mxCell>
                <mxCell id="63" style="edgeStyle=orthogonalEdgeStyle;rounded=0;html=1;entryX=0.992;entryY=0.465;entryDx=0;entryDy=0;entryPerimeter=0;endArrow=none;endFill=0;" edge="1" parent="1" source="65" target="8">
                    <mxGeometry relative="1" as="geometry"/>
                </mxCell>
                <mxCell id="64" style="edgeStyle=orthogonalEdgeStyle;rounded=0;html=1;endArrow=classic;endFill=1;" edge="1" parent="1" source="65">
                    <mxGeometry relative="1" as="geometry">
                        <mxPoint x="317" y="375.20000000000005" as="targetPoint"/>
                    </mxGeometry>
                </mxCell>
                <mxCell id="65" value="" style="verticalLabelPosition=bottom;align=center;html=1;verticalAlign=top;pointerEvents=1;dashed=0;shape=mxgraph.pid2valves.valve;valveType=gate;actuator=powered" vertex="1" parent="1">
                    <mxGeometry x="220" y="365.2" width="30" height="20" as="geometry"/>
                </mxCell>
                <mxCell id="66" value="" style="part=1;strokeColor=none;fillColor=none;fontStyle=1;fontSize=14;" vertex="1" parent="65">
                    <mxGeometry x="9.75" width="10.5" height="7" as="geometry"/>
                </mxCell>
                <mxCell id="67" value="PRV" style="text;html=1;align=center;verticalAlign=middle;resizable=0;points=[];autosize=1;strokeColor=none;fillColor=none;strokeWidth=1;" vertex="1" parent="1">
                    <mxGeometry x="210" y="294" width="50" height="30" as="geometry"/>
                </mxCell>
                <mxCell id="68" value="BDV" style="text;html=1;align=center;verticalAlign=middle;resizable=0;points=[];autosize=1;strokeColor=none;fillColor=none;" vertex="1" parent="1">
                    <mxGeometry x="209" y="234" width="50" height="30" as="geometry"/>
                </mxCell>
                <mxCell id="69" value="" style="edgeStyle=orthogonalEdgeStyle;orthogonalLoop=1;jettySize=auto;html=1;exitX=0.003;exitY=0.205;exitDx=0;exitDy=0;exitPerimeter=0;rounded=0;endArrow=none;entryX=0.111;entryY=0.417;entryDx=0;entryDy=0;entryPerimeter=0;" edge="1" parent="1" source="19" target="70">
                    <mxGeometry width="100" relative="1" as="geometry">
                        <mxPoint x="617.962" y="478.0999999999999" as="sourcePoint"/>
                        <mxPoint x="657" y="624" as="targetPoint"/>
                        <Array as="points">
                            <mxPoint x="618" y="624"/>
                            <mxPoint x="663" y="624"/>
                        </Array>
                    </mxGeometry>
                </mxCell>
                <mxCell id="70" value="" style="verticalLabelPosition=bottom;align=center;html=1;verticalAlign=top;pointerEvents=1;dashed=0;shape=mxgraph.pid2valves.valve;valveType=gate;actuator=powered" vertex="1" parent="1">
                    <mxGeometry x="660" y="614" width="30" height="20" as="geometry"/>
                </mxCell>
                <mxCell id="71" value="" style="part=1;strokeColor=none;fillColor=none;fontStyle=1;fontSize=14;" vertex="1" parent="70">
                    <mxGeometry x="9.75" width="10.5" height="7" as="geometry"/>
                </mxCell>
                <mxCell id="72" value="" style="endArrow=classic;html=1;strokeColor=#CCFF99;fillColor=#CCFF99;" edge="1" parent="1">
                    <mxGeometry width="50" height="50" relative="1" as="geometry">
                        <mxPoint x="247" y="274" as="sourcePoint"/>
                        <mxPoint x="297" y="224" as="targetPoint"/>
                    </mxGeometry>
                </mxCell>
                <mxCell id="73" value="" style="endArrow=classic;html=1;strokeColor=#CCFF99;fillColor=#CCFF99;" edge="1" parent="1">
                    <mxGeometry width="50" height="50" relative="1" as="geometry">
                        <mxPoint x="250" y="324" as="sourcePoint"/>
                        <mxPoint x="300" y="274" as="targetPoint"/>
                    </mxGeometry>
                </mxCell>
                <mxCell id="74" value="" style="endArrow=classic;html=1;strokeColor=#99CCFF;fillColor=#CCFF99;" edge="1" parent="1">
                    <mxGeometry width="50" height="50" relative="1" as="geometry">
                        <mxPoint x="250" y="370.2" as="sourcePoint"/>
                        <mxPoint x="300" y="320.2" as="targetPoint"/>
                    </mxGeometry>
                </mxCell>
                <mxCell id="75" value="" style="endArrow=classic;html=1;strokeColor=#99CCFF;fillColor=#CCFF99;" edge="1" parent="1">
                    <mxGeometry width="50" height="50" relative="1" as="geometry">
                        <mxPoint x="260" y="530.4000000000001" as="sourcePoint"/>
                        <mxPoint x="310" y="570" as="targetPoint"/>
                    </mxGeometry>
                </mxCell>
                <mxCell id="76" value="" style="endArrow=classic;html=1;strokeColor=#99CCFF;fillColor=#CCFF99;" edge="1" parent="1">
                    <mxGeometry width="50" height="50" relative="1" as="geometry">
                        <mxPoint x="192" y="555.8000000000001" as="sourcePoint"/>
                        <mxPoint x="242" y="595.4" as="targetPoint"/>
                    </mxGeometry>
                </mxCell>
                <mxCell id="77" value="" style="endArrow=classic;html=1;strokeColor=#CCFF99;fillColor=#CCFF99;" edge="1" parent="1">
                    <mxGeometry width="50" height="50" relative="1" as="geometry">
                        <mxPoint x="673" y="634" as="sourcePoint"/>
                        <mxPoint x="720" y="680" as="targetPoint"/>
                    </mxGeometry>
                </mxCell>
                <mxCell id="78" value="" style="endArrow=classic;html=1;strokeColor=#CCFF99;fillColor=#CCFF99;" edge="1" parent="1">
                    <mxGeometry width="50" height="50" relative="1" as="geometry">
                        <mxPoint x="710" y="560.6" as="sourcePoint"/>
                        <mxPoint x="757" y="606.6" as="targetPoint"/>
                    </mxGeometry>
                </mxCell>
                <mxCell id="79" value="" style="endArrow=classic;html=1;strokeColor=#CCFF99;fillColor=#CCFF99;" edge="1" parent="1">
                    <mxGeometry width="50" height="50" relative="1" as="geometry">
                        <mxPoint x="876" y="372" as="sourcePoint"/>
                        <mxPoint x="923" y="418" as="targetPoint"/>
                    </mxGeometry>
                </mxCell>
                <mxCell id="80" value="" style="shape=flexArrow;endArrow=classic;html=1;strokeColor=#CCFF99;fillColor=#CCFF99;" edge="1" parent="1">
                    <mxGeometry width="50" height="50" relative="1" as="geometry">
                        <mxPoint x="402" y="623.5" as="sourcePoint"/>
                        <mxPoint x="472" y="623.5" as="targetPoint"/>
                    </mxGeometry>
                </mxCell>
                <mxCell id="81" value="" style="shape=flexArrow;endArrow=classic;html=1;strokeColor=#99CCFF;fillColor=#99FFFF;" edge="1" parent="1">
                    <mxGeometry width="50" height="50" relative="1" as="geometry">
                        <mxPoint x="297.5" y="624" as="sourcePoint"/>
                        <mxPoint x="367.5" y="624" as="targetPoint"/>
                    </mxGeometry>
                </mxCell>
                <mxCell id="82" value="Must - input" style="text;html=1;align=center;verticalAlign=middle;resizable=0;points=[];autosize=1;strokeColor=none;fillColor=none;" vertex="1" parent="1">
                    <mxGeometry x="390" y="640" width="90" height="30" as="geometry"/>
                </mxCell>
                <mxCell id="83" value="Nice - input" style="text;html=1;align=center;verticalAlign=middle;resizable=0;points=[];autosize=1;strokeColor=none;fillColor=none;" vertex="1" parent="1">
                    <mxGeometry x="290.5" y="639" width="80" height="30" as="geometry"/>
                </mxCell>
                <mxCell id="84" value="Bool" style="whiteSpace=wrap;html=1;fillColor=#4D9900;" vertex="1" parent="1">
                    <mxGeometry x="305.5" y="200" width="50" height="30" as="geometry"/>
                </mxCell>
                <mxCell id="85" value="Bool" style="whiteSpace=wrap;html=1;fillColor=#4D9900;" vertex="1" parent="1">
                    <mxGeometry x="305.5" y="239" width="50" height="30" as="geometry"/>
                </mxCell>
                <mxCell id="86" value="Bool" style="whiteSpace=wrap;html=1;fillColor=#4D9900;" vertex="1" parent="1">
                    <mxGeometry x="930" y="413.4" width="50" height="30" as="geometry"/>
                </mxCell>
                <mxCell id="87" value="Bool" style="whiteSpace=wrap;html=1;fillColor=#4D9900;" vertex="1" parent="1">
                    <mxGeometry x="757" y="590.6" width="50" height="30" as="geometry"/>
                </mxCell>
                <mxCell id="88" value="Bool" style="whiteSpace=wrap;html=1;fillColor=#4D9900;" vertex="1" parent="1">
                    <mxGeometry x="730" y="669" width="50" height="30" as="geometry"/>
                </mxCell>
            </root>
        </mxGraphModel>
    </diagram>
</mxfile>